<?xml version="1.0" encoding="UTF-8" standalone="no"?>
<svg
   xmlns:dc="http://purl.org/dc/elements/1.1/"
   xmlns:cc="http://creativecommons.org/ns#"
   xmlns:rdf="http://www.w3.org/1999/02/22-rdf-syntax-ns#"
   xmlns:svg="http://www.w3.org/2000/svg"
   xmlns="http://www.w3.org/2000/svg"
   xmlns:sodipodi="http://sodipodi.sourceforge.net/DTD/sodipodi-0.dtd"
   xmlns:inkscape="http://www.inkscape.org/namespaces/inkscape"
   width="453mm"
   height="50mm"
   viewBox="0 0 453 50"
   version="1.1"
   id="svg2"
   inkscape:version="0.91 r13725"
   sodipodi:docname="visiere_covid19.svg">
  <metadata
     id="metadata24">
    <rdf:RDF>
      <cc:Work
         rdf:about="">
        <dc:format>image/svg+xml</dc:format>
        <dc:type
           rdf:resource="http://purl.org/dc/dcmitype/StillImage" />
        <dc:title></dc:title>
      </cc:Work>
    </rdf:RDF>
  </metadata>
  <defs
     id="defs22" />
  <sodipodi:namedview
     pagecolor="#ffffff"
     bordercolor="#666666"
     borderopacity="1"
     objecttolerance="10"
     gridtolerance="10"
     guidetolerance="10"
     inkscape:pageopacity="0"
     inkscape:pageshadow="2"
     inkscape:window-width="2560"
     inkscape:window-height="1414"
     id="namedview20"
     showgrid="false"
     inkscape:zoom="1.2404101"
     inkscape:cx="834.20945"
     inkscape:cy="12.579491"
     inkscape:window-x="0"
     inkscape:window-y="0"
     inkscape:window-maximized="1"
     inkscape:current-layer="svg2" />
  <g
     id="Sketch"
     transform="matrix(1,0,0,-1,201.81397,4.5000032)">
    <title
       id="title18">b'Sketch'</title>
  </g>
  <g
     transform="matrix(1,0,0,-1,259.52502,-70.587356)"
     id="Sketch001">
    <title
       id="title4187">b'support_visiere'</title>
  </g>
  <g
     id="g4359"
     transform="translate(-2.3122682,-55.649581)" />
  <g
     id="g4369"
     transform="matrix(-1,0,0,0.99999999,435.96466,-5.1322278)">
    <path
       id="path4385"
       style="fill:none;stroke:#000000;stroke-width:0.34999996"
       d="m 91.561697,34.925971 2.631151,0 0,15.463678 -2.631151,0 0,-15.463678 m -69.154952,-1.605499 0.870748,0 0,17.745276 -0.870748,0 z m 16.211684,0.139623 0.996195,0.08716 -0.860951,9.840718 -0.996195,-0.08716 0.860951,-9.840718 m 10,0 0.996195,0.08716 -0.860951,9.840718 -0.996195,-0.08716 0.860951,-9.840718 m 10,0 0.996195,0.08716 -0.860951,9.840718 -0.996195,-0.08716 0.860951,-9.840718 M 19.686051,42 c 0,-1.3807 -1.1193,-2.5 -2.5,-2.5 -1.3807,0 -2.5,1.1193 -2.5,2.5 0,1.3807 1.1193,2.5 2.5,2.5 1.3807,0 2.5,-1.1193 2.5,-2.5 z m -10.0774933,-8.679528 2.0000003,0 0,17.745276 -2.0000003,0 z M 209.1779,29.49958 l -192.009999,0 -1.56,5.796 -1.929575,-0.51761 1.412325,-5.27797 -3.25069,0 c -2.7614003,0 -5.0000003,2.2386 -5.0000003,5 l 0,15 c 0,2.7614 2.2386,5 5.0000003,5 l 3.25069,0 -1.4142,-5.2779 1.93,-0.5177 1.55,5.7956 52,0 19.999996,0 120.021453,0 m 117.6162,-19.574029 -2.63115,0 0,15.463678 2.63115,0 0,-15.463678 m 69.15495,-1.605499 -0.87074,0 0,17.745276 0.87074,0 z m -16.21168,0.139623 -0.9962,0.08716 0.86096,9.840718 0.99619,-0.08716 -0.86095,-9.840718 m -10,0 -0.9962,0.08716 0.86096,9.840718 0.99619,-0.08716 -0.86095,-9.840718 m -10,0 -0.9962,0.08716 0.86096,9.840718 0.99619,-0.08716 -0.86095,-9.840718 M 398.66975,42 c 0,-1.3807 1.1193,-2.5 2.5,-2.5 1.3807,0 2.5,1.1193 2.5,2.5 0,1.3807 -1.1193,2.5 -2.5,2.5 -1.3807,0 -2.5,-1.1193 -2.5,-2.5 z m 10.07749,-8.679528 -2,0 0,17.745276 2,0 z M 209.1779,29.49958 l 192.01,0 1.56,5.796 1.92957,-0.51761 -1.41232,-5.27797 3.25069,0 c 2.7614,0 5,2.2386 5,5 l 0,15 c 0,2.7614 -2.2386,5 -5,5 l -3.25069,0 1.4142,-5.2779 -1.93,-0.5177 -1.55,5.7956 -52,0 -20,0 -120.02145,0"
       inkscape:connector-curvature="0"
       sodipodi:nodetypes="cccccccccccccccccccccccccsssssccccccccccssssccccccccccccccccccccccccccccccccsssssccccccccccssssccccccc" />
  </g>
  <g
     id="g4161" />
  <path
     style="fill:none;fill-rule:evenodd;stroke:#000000;stroke-width:0.28222221px;stroke-linecap:butt;stroke-linejoin:miter;stroke-opacity:1"
     d="m 78.63314,1.0801873 -71.86639,2.934714 0,4.065285 -1,0 0,-2.000001 -5,2.8868 0,6.2265017 5,2.8868 0,-2.000001 1,0 0,1.981104 57.99999,-2.007559 13.8664,7.026455 148.15361,0 148.15361,0 13.8664,-7.026455 57.99999,2.007559 0,-1.981104 1,0 0,2.000001 5,-2.8868 0,-6.2265017 -5,-2.8868 0,2.000001 -1,0 0,-4.065285 -71.86639,-2.934714 -148.15361,0 z"
     id="path4224" />
  <path
     style="color:#000000;clip-rule:nonzero;display:inline;overflow:visible;visibility:visible;opacity:1;isolation:auto;mix-blend-mode:normal;color-interpolation:sRGB;color-interpolation-filters:linearRGB;solid-color:#000000;solid-opacity:1;fill:none;fill-opacity:1;fill-rule:nonzero;stroke:#000000;stroke-width:0.28222221;stroke-linecap:round;stroke-linejoin:miter;stroke-miterlimit:4;stroke-dasharray:none;stroke-dashoffset:0;stroke-opacity:1;color-rendering:auto;image-rendering:auto;shape-rendering:auto;text-rendering:auto;enable-background:accumulate"
     d="m 77.150377,6.5386814 5.444119,0 c 0.882335,0 1.592663,0.7103278 1.592663,1.5926632 l 0,4.9415124 c 0,0.882335 -0.710328,1.592663 -1.592663,1.592663 l -5.444119,0"
     id="rect4305"
     inkscape:connector-curvature="0"
     sodipodi:nodetypes="cssssc" />
  <path
     sodipodi:nodetypes="cssssc"
     inkscape:connector-curvature="0"
     id="path4360"
     d="m 376.42312,6.5386814 -5.44412,0 c -0.88233,0 -1.59266,0.7103278 -1.59266,1.5926632 l 0,4.9415124 c 0,0.882335 0.71033,1.592663 1.59266,1.592663 l 5.44412,0"
     style="color:#000000;clip-rule:nonzero;display:inline;overflow:visible;visibility:visible;opacity:1;isolation:auto;mix-blend-mode:normal;color-interpolation:sRGB;color-interpolation-filters:linearRGB;solid-color:#000000;solid-opacity:1;fill:none;fill-opacity:1;fill-rule:nonzero;stroke:#000000;stroke-width:0.28222221;stroke-linecap:round;stroke-linejoin:miter;stroke-miterlimit:4;stroke-dasharray:none;stroke-dashoffset:0;stroke-opacity:1;color-rendering:auto;image-rendering:auto;shape-rendering:auto;text-rendering:auto;enable-background:accumulate" />
  <path
     id="path4400"
     style="fill:none;fill-rule:evenodd;stroke:#000000;stroke-width:0.28222221px;stroke-linecap:butt;stroke-linejoin:miter;stroke-opacity:1"
     d="m 184.82524,13.333791 c -0.25351,-0.44925 -0.67576,-0.83281 -0.76596,-2.41778 -0.0902,-1.5849699 1.17031,-5.3614468 2.73775,-5.6429925 1.56744,0.2815457 2.82795,4.0580226 2.73775,5.6429925 -0.0902,1.58497 -0.51245,1.96853 -0.76596,2.41778"
     inkscape:connector-curvature="0"
     sodipodi:nodetypes="cscsc" />
  <path
     sodipodi:nodetypes="cscsc"
     inkscape:connector-curvature="0"
     d="m 264.80469,13.333791 c -0.25351,-0.44925 -0.67576,-0.83281 -0.76596,-2.41778 -0.0902,-1.5849699 1.17031,-5.3614468 2.73775,-5.6429925 1.56744,0.2815457 2.82795,4.0580226 2.73775,5.6429925 -0.0902,1.58497 -0.51245,1.96853 -0.76596,2.41778"
     style="fill:none;fill-rule:evenodd;stroke:#000000;stroke-width:0.28222221px;stroke-linecap:butt;stroke-linejoin:miter;stroke-opacity:1"
     id="path4403" />
  <path
     id="path4405"
     style="fill:none;fill-rule:evenodd;stroke:#000000;stroke-width:0.28222221px;stroke-linecap:butt;stroke-linejoin:miter;stroke-opacity:1"
     d="m 346.09087,11.853377 c 0.44925,-0.253513 0.83281,-0.675782 2.41778,-0.765962 1.58497,-0.09018 7.3781,0.625061 8.20263,2.737746 -0.82453,2.112685 -6.61766,2.827926 -8.20263,2.737746 -1.58497,-0.09018 -1.96853,-0.512449 -2.41778,-0.765962"
     inkscape:connector-curvature="0"
     sodipodi:nodetypes="cscsc" />
  <path
     sodipodi:nodetypes="cscsc"
     inkscape:connector-curvature="0"
     d="m 107.48263,11.853377 c -0.44925,-0.253513 -0.83281,-0.675782 -2.41778,-0.765962 -1.58497,-0.09018 -7.3781,0.625061 -8.20263,2.737746 0.82453,2.112685 6.61766,2.827926 8.20263,2.737746 1.58497,-0.09018 1.96853,-0.512449 2.41778,-0.765962"
     style="fill:none;fill-rule:evenodd;stroke:#000000;stroke-width:0.28222221px;stroke-linecap:butt;stroke-linejoin:miter;stroke-opacity:1"
     id="path4408" />
</svg>
